<?xml version="1.0" encoding="UTF-8" standalone="no"?>
<!-- Created with Inkscape (http://www.inkscape.org/) -->

<svg
   xmlns:dc="http://purl.org/dc/elements/1.1/"
   xmlns:cc="http://creativecommons.org/ns#"
   xmlns:rdf="http://www.w3.org/1999/02/22-rdf-syntax-ns#"
   xmlns:svg="http://www.w3.org/2000/svg"
   xmlns="http://www.w3.org/2000/svg"
   xmlns:sodipodi="http://sodipodi.sourceforge.net/DTD/sodipodi-0.dtd"
   xmlns:inkscape="http://www.inkscape.org/namespaces/inkscape"
   width="173.8364mm"
   height="174.89072mm"
   viewBox="0 0 173.8364 174.89072"
   version="1.1"
   id="svg8"
   sodipodi:docname="ninja_star.svg"
   inkscape:version="0.92.4 (5da689c313, 2019-01-14)">
  <defs
     id="defs2" />
  <sodipodi:namedview
     id="base"
     pagecolor="#ffffff"
     bordercolor="#666666"
     borderopacity="1.0"
     inkscape:pageopacity="0.0"
     inkscape:pageshadow="2"
     inkscape:zoom="0.35"
     inkscape:cx="333.90873"
     inkscape:cy="201.99641"
     inkscape:document-units="mm"
     inkscape:current-layer="layer1"
     showgrid="true"
     inkscape:window-width="1366"
     inkscape:window-height="688"
     inkscape:window-x="0"
     inkscape:window-y="27"
     inkscape:window-maximized="1"
     showguides="true"
     inkscape:guide-bbox="true">
    <inkscape:grid
       type="xygrid"
       id="grid164"
       originx="-17.486649"
       originy="-94.721789" />
    <sodipodi:guide
       position="-17.486649,-94.721787"
       orientation="0,793.70079"
       id="guide167"
       inkscape:locked="false" />
    <sodipodi:guide
       position="192.51335,-94.721787"
       orientation="-1122.5197,0"
       id="guide169"
       inkscape:locked="false" />
    <sodipodi:guide
       position="192.51335,202.27822"
       orientation="0,-793.70079"
       id="guide171"
       inkscape:locked="false" />
    <sodipodi:guide
       position="-17.486649,202.27822"
       orientation="1122.5197,0"
       id="guide173"
       inkscape:locked="false" />
  </sodipodi:namedview>
  <metadata
     id="metadata5">
    <rdf:RDF>
      <cc:Work
         rdf:about="">
        <dc:format>image/svg+xml</dc:format>
        <dc:type
           rdf:resource="http://purl.org/dc/dcmitype/StillImage" />
        <dc:title></dc:title>
      </cc:Work>
    </rdf:RDF>
  </metadata>
  <g
     inkscape:label="Layer 1"
     inkscape:groupmode="layer"
     id="layer1"
     transform="translate(-17.486649,-27.387497)">
    <path
       style="stroke-width:0.99999994"
       d="M 322.82617 31.306641 L 249.95117 188.27539 A 56.692904 56.692904 0 0 1 269.48828 251.29297 A 56.692904 56.692904 0 0 1 197.78516 287.16797 A 56.692904 56.692904 0 0 1 161.68555 250.36719 L 0 277.80664 L 131.1875 399.72656 A 56.692908 56.692908 0 0 1 186.68555 388.3125 A 56.692908 56.692908 0 0 1 222.56055 460.01562 A 56.692908 56.692908 0 0 1 158.67969 497.83008 L 134.67578 661.00391 L 284.12891 577.83203 A 56.692907 56.692907 0 0 1 282.16211 537.08203 A 56.692907 56.692907 0 0 1 353.86328 501.20703 A 56.692907 56.692907 0 0 1 389.73828 572.91016 A 56.692907 56.692907 0 0 1 388.57227 575.9043 L 540.73633 651.33398 L 511.65039 503.0293 A 56.692906 56.692906 0 0 1 473.41211 503.9375 A 56.692906 56.692906 0 0 1 437.53711 432.23633 A 56.692906 56.692906 0 0 1 509.24023 396.36133 A 56.692906 56.692906 0 0 1 520.58008 401.64258 L 657.01953 262.16016 L 496.18164 242.6875 A 56.692905 56.692905 0 0 1 494.46094 249.42773 A 56.692905 56.692905 0 0 1 422.75977 285.30273 A 56.692905 56.692905 0 0 1 386.88477 213.59961 A 56.692905 56.692905 0 0 1 404.72852 187.75977 L 322.82617 31.306641 z M 324.41406 270.68164 A 28.346724 28.346724 0 0 1 332.76172 272.12891 A 28.346724 28.346724 0 0 1 350.69727 307.98047 A 28.346724 28.346724 0 0 1 314.84766 325.91602 A 28.346724 28.346724 0 0 1 296.9082 290.06641 A 28.346724 28.346724 0 0 1 324.41406 270.68164 z M 378.63672 315.84375 A 28.346724 28.346724 0 0 1 386.98438 317.28906 A 28.346724 28.346724 0 0 1 404.91992 353.14258 A 28.346724 28.346724 0 0 1 369.07031 371.07812 A 28.346724 28.346724 0 0 1 351.13086 335.22852 A 28.346724 28.346724 0 0 1 378.63672 315.84375 z M 271.4043 322.05273 A 28.346724 28.346724 0 0 1 279.75195 323.49805 A 28.346724 28.346724 0 0 1 297.6875 359.35156 A 28.346724 28.346724 0 0 1 261.83789 377.28711 A 28.346724 28.346724 0 0 1 243.90039 341.4375 A 28.346724 28.346724 0 0 1 271.4043 322.05273 z M 365.10156 383.60938 A 28.346724 28.346724 0 0 1 373.44922 385.05664 A 28.346724 28.346724 0 0 1 391.38477 420.9082 A 28.346724 28.346724 0 0 1 355.53516 438.8457 A 28.346724 28.346724 0 0 1 337.5957 402.99414 A 28.346724 28.346724 0 0 1 365.10156 383.60938 z M 298.24414 394.4707 A 28.346724 28.346724 0 0 1 306.5918 395.91602 A 28.346724 28.346724 0 0 1 324.52734 431.76758 A 28.346724 28.346724 0 0 1 288.67773 449.70508 A 28.346724 28.346724 0 0 1 270.73828 413.85352 A 28.346724 28.346724 0 0 1 298.24414 394.4707 z "
       transform="matrix(0.26458333,0,0,0.26458333,17.486649,27.387497)"
       id="path10" />
  </g>
</svg>
